<svg xmlns:dc="http://purl.org/dc/elements/1.1/" xmlns:cc="http://creativecommons.org/ns#" xmlns:rdf="http://www.w3.org/1999/02/22-rdf-syntax-ns#" xmlns:svg="http://www.w3.org/2000/svg" xmlns="http://www.w3.org/2000/svg" xmlns:xlink="http://www.w3.org/1999/xlink" id="svg458736" viewBox="0 0 1024 768" height="768" width="1024" version="1.1">
  <metadata id="metadata458742" fill="#FFFFFF">
    <rdf:rdf fill="#FFFFFF">
      <cc:work rdf:about="" fill="#FFFFFF">
        <dc:format fill="#FFFFFF">image/svg+xml</dc:format>
        <dc:type rdf:resource="http://purl.org/dc/dcmitype/StillImage" fill="#FFFFFF"></dc:type>
      </cc:work>
    </rdf:rdf>
  </metadata>
  <defs id="defs458740"></defs>
  <linearGradient spreadMethod="pad" y2="30%" x2="-10%" y1="120%" x1="30%" id="3d_gradient2-logo-88c0255e-2b48-4787-a37d-c8a0543f38aa" fill="#FFFFFF">
    <stop id="stop458717" stop-opacity="1" stop-color="#ffffff" offset="0%" fill="#FFFFFF"></stop>
    <stop id="stop458719" stop-opacity="1" stop-color="#000000" offset="100%" fill="#FFFFFF"></stop>
  </linearGradient>
  <linearGradient gradientTransform="rotate(-30)" spreadMethod="pad" y2="30%" x2="-10%" y1="120%" x1="30%" id="3d_gradient3-logo-88c0255e-2b48-4787-a37d-c8a0543f38aa" fill="#FFFFFF">
    <stop id="stop458722" stop-opacity="1" stop-color="#ffffff" offset="0%" fill="#FFFFFF"></stop>
    <stop id="stop458724" stop-opacity="1" stop-color="#cccccc" offset="50%" fill="#FFFFFF"></stop>
    <stop id="stop458726" stop-opacity="1" stop-color="#000000" offset="100%" fill="#FFFFFF"></stop>
  </linearGradient>
  <g id="logo-group" fill="#FFFFFF">
    <image xlink:href="" id="container" x="272" y="144" width="480" height="480" style="display: none;" transform="translate(0 0)" fill="#FFFFFF"></image>
    <g id="logo-center" transform="translate(0 0)" fill="#FFFFFF">
      <image xlink:href="" id="icon_container" x="0" y="0" style="display: none;" fill="#FFFFFF"></image>
      <g id="slogan" style="font-style:normal;font-weight:700;font-size:32px;line-height:1;font-family:Chivo;font-variant-ligatures:none;text-align:center;text-anchor:middle" transform="translate(0 0)" fill="#FFFFFF"></g>
      <g id="title" style="font-style:normal;font-weight:normal;font-size:72px;line-height:1;font-family:'Brandmark Stencil 1';font-variant-ligatures:normal;text-align:center;text-anchor:middle" transform="translate(0 0)" fill="#FFFFFF">
        <path id="path458745" style="font-style:normal;font-weight:normal;font-size:72px;line-height:1;font-family:'Brandmark Stencil 1';font-variant-ligatures:normal;text-align:center;text-anchor:middle" d="m 434.61012,-47.16 h 59.68801 c 8.56799,0 13.39199,5.112 13.46399,5.184 0.216,0.288 0.576,0.36 0.864,0.36 0.28801,0 0.57601,-0.072 0.79201,-0.288 0.50399,-0.432 0.57599,-1.224 0.14399,-1.728 -0.21599,-0.216 -5.544,-5.976 -15.26399,-5.976 h -59.68801 c -0.64799,0 -1.224,0.504 -1.224,1.224 0,0.648 0.57601,1.224 1.224,1.224 z m 60.12,20.016 c -7.2,-2.448 -13.392,-4.608 -13.392,-10.584 0,-0.504 0.072,-1.08 0.144,-1.512 0.072,-0.648 -0.36,-1.296 -1.08,-1.368 -0.648,-0.072 -1.22399,0.36 -1.36799,1.008 -0.072,0.576 -0.072,1.224 -0.072,1.872 0,7.704 7.56,10.368 14.976,12.888 7.632,2.664 14.90399,5.184 14.90399,12.888 0,6.192 -7.19999,9.576 -14.04,9.576 -9,0 -15.33599,-6.12 -15.40799,-6.192 -0.50401,-0.432 -1.29601,-0.432 -1.728,0 -0.50401,0.504 -0.50401,1.296 0,1.728 0.28799,0.288 7.05599,6.84 17.13599,6.84 10.872,0 16.488,-6.048 16.488,-11.952 0,-9.432 -8.784,-12.456 -16.56,-15.192 z m -60.12,2.808 h 27.144 c 0.648,0 1.224,-0.576 1.224,-1.224 0,-0.648 -0.576,-1.224 -1.224,-1.224 h -27.144 c -0.64799,0 -1.224,0.576 -1.224,1.224 0,0.648 0.57601,1.224 1.224,1.224 z m 27.648,21.96 h -27.648 c -0.64799,0 -1.224,0.504 -1.224,1.224 0,0.648 0.57601,1.152 1.224,1.152 h 27.648 c 0.648,0 1.224,-0.504 1.224,-1.152 0,-0.72 -0.576,-1.224 -1.224,-1.224 z" stroke-width="0px" stroke-linejoin="miter" stroke-miterlimit="2" fill="#1858DC" stroke="#1858DC" transform="translate(0 346.402) translate(320.56014999999996 -24.412) scale(2.5) translate(-433.38612 49.608)"></path>
        <path id="path458747" style="font-style:normal;font-weight:normal;font-size:72px;line-height:1;font-family:'Brandmark Stencil 1';font-variant-ligatures:normal;text-align:center;text-anchor:middle" d="m 555.1325,-25.92 c 3.888,-2.16 6.552,-6.336 6.552,-11.088 0,-6.984 -5.616,-12.6 -12.6,-12.6 h -17.28 c -0.648,0 -1.224,0.504 -1.224,1.224 0,0.648 0.576,1.224 1.224,1.224 h 17.28 c 5.616,0 10.224,4.536 10.224,10.152 0,5.616 -4.608,10.224 -10.224,10.224 h -16.056 v -15.408 c 0,-0.648 -0.576,-1.224 -1.224,-1.224 -0.648,0 -1.224,0.576 -1.224,1.224 v 34.776 c 0,0.72 0.576,1.224 1.224,1.224 0.648,0 1.224,-0.504 1.224,-1.224 v -16.992 h 16.056 c 0.36,0 0.648,0 1.008,0 h 0.36 c 6.048,0 10.944,4.968 10.944,11.016 0,6.048 -4.896,11.016 -10.944,11.016 h -18.648 c -0.648,0 -1.224,0.504 -1.224,1.224 0,0.648 0.576,1.152 1.224,1.152 h 18.648 c 7.344,0 13.392,-5.976 13.392,-13.392 0,-5.76 -3.6,-10.656 -8.712,-12.528 z" stroke-width="0px" stroke-linejoin="miter" stroke-miterlimit="2" fill="#87A5E4" stroke="#87A5E4" transform="translate(0 346.402) translate(563.5461 -24.412) scale(2.5) translate(-530.5805 49.608)"></path>
        <path id="path458749" style="font-style:normal;font-weight:normal;font-size:72px;line-height:1;font-family:'Brandmark Stencil 1';font-variant-ligatures:normal;text-align:center;text-anchor:middle" d="m 585.314,-49.608 c -0.648,0 -1.224,0.504 -1.224,1.224 v 47.232 c 0,0.648 0.576,1.152 1.224,1.152 0.648,0 1.224,-0.504 1.224,-1.152 v -47.232 c 0,-0.72 -0.576,-1.224 -1.224,-1.224 z" stroke-width="0px" stroke-linejoin="miter" stroke-miterlimit="2" fill="#F6F2EB" stroke="#F6F2EB" transform="translate(0 346.402) translate(697.31985 -24.412) scale(2.5) translate(-584.09 49.608)"></path>
      </g>
      <image xlink:href="" id="icon" x="0" y="0" style="display: none;" fill="#FFFFFF"></image>
    </g>
  </g>
</svg>